/* XPM */
static char *close_active[] = {
/* columns rows colors chars-per-pixel */
"24 16 38 1 ",
"  c gray10",
". c #1C1B1B",
"X c #1D1B1B",
"o c #281F1F",
"O c #291F20",
"+ c #2A2020",
"@ c #542E30",
"# c #552E30",
"$ c #562E30",
"% c #5C3033",
"& c #5D3133",
"* c #5E3133",
"= c #5E3134",
"- c #5F3234",
"; c #603234",
": c #623235",
"> c #6A3538",
", c #6C3639",
"< c #6F373A",
"1 c #72383B",
"2 c #73393C",
"3 c #74393C",
"4 c #75393C",
"5 c #763A3D",
"6 c #773A3D",
"7 c #A94B50",
"8 c #AA4B50",
"9 c #AB4C50",
"0 c #AB4C51",
"q c #C25359",
"w c #C35459",
"e c #C2545A",
"r c #C3545A",
"t c #C4545A",
"y c #C9565C",
"u c #CA565C",
"i c #CB575D",
"p c #CC575D",
/* pixels */
"                        ",
"        +69tt85+        ",
"       #wppppppw@       ",
"      #ippppppppi@      ",
"     +wppeppppqppqO     ",
"     6pppX;uu:.ppp4     ",
"     0ppp1 &* ,ppp8     ",
"     wpppp<  >ppppw     ",
"     wpppu%  $ypppq     ",
"     9ppp- 22 =ppp8     ",
"     5ppp+6pp6+ppp3     ",
"     +wppppppppppeo     ",
"      @ippppppppi@      ",
"       @qppppppe@       ",
"        O47rr73o        ",
"                        "
};
