/* XPM */
static char *close_inactive[] = {
/* columns rows colors chars-per-pixel */
"24 16 31 1 ",
"  c gray10",
". c #1A1A1B",
"X c gray11",
"o c gray12",
"O c #1F1F20",
"+ c #2F2F30",
"@ c #2F3031",
"# c #303031",
"$ c #323233",
"% c #323334",
"& c #333334",
"* c #333434",
"= c #343536",
"- c #363738",
"; c #373839",
": c #38393A",
"> c #393A3B",
", c #3A3B3C",
"< c #3B3B3C",
"1 c #3B3B3D",
"2 c #3B3C3D",
"3 c #4E4E50",
"4 c #4E4F51",
"5 c #565759",
"6 c #56575A",
"7 c #56585A",
"8 c #57585A",
"9 c #595A5C",
"0 c #595A5D",
"q c #5A5B5D",
"w c #5A5B5E",
/* pixels */
"                        ",
"        O248842O        ",
"       #6wwwwww6@       ",
"      #qwwwwwwwwq@      ",
"     O6ww5wwww5ww5o     ",
"     2wwwX*qq=.www1     ",
"     4www> $% ;www4     ",
"     6wwww:  -wwww6     ",
"     6www0$  #9www5     ",
"     4www& ,, %www4     ",
"     2wwwO2ww2Owww<     ",
"     O6wwwwwwwwww5o     ",
"      @qwwwwwwwwq+      ",
"       @5wwwwww5+       ",
"        o13773<o        ",
"                        "
};
