/* XPM */
static char *close_prelight[] = {
/* columns rows colors chars-per-pixel */
"24 16 41 1 ",
"  c gray10",
". c #1C1B1B",
"X c #1D1B1B",
"o c #292122",
"O c #2A2222",
"+ c #2B2223",
"@ c #57393A",
"# c #58393A",
"$ c #59393B",
"% c #5A393B",
"& c #603D3F",
"* c #613D3F",
"= c #623E40",
"- c #633E40",
"; c #633F41",
": c #643F41",
"> c #674042",
", c #6F4446",
"< c #714648",
"1 c #744749",
"2 c #77484B",
"3 c #79494C",
"4 c #7A4A4C",
"5 c #7B4A4D",
"6 c #7B4B4D",
"7 c #7C4B4E",
"8 c #7D4B4E",
"9 c #B26569",
"0 c #B3666A",
"q c #B4666A",
"w c #B4676B",
"e c #CC7277",
"r c #CC7378",
"t c #CD7378",
"y c #CE7378",
"u c #CF7479",
"i c #D4767B",
"p c #D4777C",
"a c #D5777C",
"s c #D6787D",
"d c #D7787D",
/* pixels */
"                        ",
"        +7quu06+        ",
"       $tddddddt#       ",
"      $sdddddddds#      ",
"     +tddrddddeddeO     ",
"     7dddX:aa>.ddd5     ",
"     wddd2 *= <ddd0     ",
"     tdddd1  ,ddddt     ",
"     tdddp&  %iddde     ",
"     qddd; 33 -ddd0     ",
"     6ddd+8dd8+ddd4     ",
"     +tddddddddddro     ",
"      #sdddddddds@      ",
"       #eddddddr@       ",
"        O59yy94o        ",
"                        "
};
