/* XPM */
static char *hide_pressed[] = {
/* columns rows colors chars-per-pixel */
"24 16 23 1 ",
"  c gray10",
". c #23262B",
"X c #23272C",
"o c #24282D",
"O c #3E4C62",
"+ c #3E4C63",
"@ c #3F4D64",
"# c #53688A",
"$ c #53698B",
"% c #54698C",
"& c #546A8D",
"* c #7496CC",
"= c #7496CD",
"- c #7597CE",
"; c #7698CF",
": c #83ABEB",
"> c #84ABEB",
", c #84ACEC",
"< c #85ADED",
"1 c #85ADEE",
"2 c #89B3F7",
"3 c #8AB4F8",
"4 c white",
/* pixels */
"                        ",
"        o&-11=%o        ",
"       @,333333,+       ",
"      @2333333332+      ",
"     o,3333333333:X     ",
"     &333333333333$     ",
"     ;333333333333=     ",
"     <333444444333,     ",
"     ,333444444333:     ",
"     -333333333333=     ",
"     %333333333333#     ",
"     o,3333333333>.     ",
"      +2333333332O      ",
"       +:333333>O       ",
"        X$*<<*#.        ",
"                        "
};
