/* XPM */
static char *hide_active[] = {
/* columns rows colors chars-per-pixel */
"24 16 2 1 ",
"  c gray10",
". c #8A8C90",
/* pixels */
"                        ",
"                        ",
"                        ",
"                        ",
"                        ",
"                        ",
"                        ",
"         ......         ",
"         ......         ",
"                        ",
"                        ",
"                        ",
"                        ",
"                        ",
"                        ",
"                        "
};
