/* XPM */
static char *maximize_prelight[] = {
/* columns rows colors chars-per-pixel */
"24 16 24 1 ",
"  c #18191A",
". c #19191A",
"X c #18191B",
"o c gray10",
"O c #191A1C",
"+ c #1B1B1E",
"@ c #23262A",
"# c #23262B",
"$ c #2F333A",
"% c #30333A",
"& c #31333C",
"* c #31343D",
"= c #373B45",
"- c #393D47",
"; c #3A3E48",
": c #3B3F49",
"> c #3C404A",
", c #3D414B",
"< c #94979F",
"1 c #989BA1",
"2 c #9B9EA5",
"3 c #A9ACB2",
"4 c #ABAEB4",
"5 c #C4C7CC",
/* pixels */
"oooooooooooooooooooooooo",
"ooooooooo. XX .ooooooooo",
"ooooooooO#%==%@Ooooooooo",
"ooooooo+*------&+ooooooo",
"ooooooO*--------&Ooooooo",
"ooooo.#--->1553--@.ooooo",
"ooooo $-->->155--$ ooooo",
"oooooX=-:2,-;<5--=Xooooo",
"oooooX=-:52,-;<--=Xooooo",
"ooooo $-:551>->--$ ooooo",
"ooooo.@--4551>---@.ooooo",
"ooooooO&--------&Ooooooo",
"ooooooo+&------&+ooooooo",
"ooooooooO@$==$@Ooooooooo",
"ooooooooo. XX .ooooooooo",
"oooooooooooooooooooooooo"
};
