/* XPM */
static char *maximize_pressed[] = {
/* columns rows colors chars-per-pixel */
"24 16 31 1 ",
"  c gray10",
". c #23262B",
"X c #23272C",
"o c #24282D",
"O c #3E4C62",
"+ c #3E4C63",
"@ c #3F4D64",
"# c #53688A",
"$ c #53698B",
"% c #54698C",
"& c #546A8D",
"* c #7496CC",
"= c #7496CD",
"- c #7597CE",
"; c #7698CF",
": c #83ABEB",
"> c #84ABEB",
", c #84ACEC",
"< c #85ADED",
"1 c #85ADEE",
"2 c #89B3F7",
"3 c #8AB4F8",
"4 c #8BB5F8",
"5 c #8CB5F8",
"6 c #8DB6F8",
"7 c #D7E5FD",
"8 c #D9E7FD",
"9 c #DDE9FD",
"0 c #E8F0FE",
"q c #E9F1FE",
"w c white",
/* pixels */
"                        ",
"        o&-11=%o        ",
"       @,333333,+       ",
"      @2333333332+      ",
"     o,3333333333:X     ",
"     &333358ww0333$     ",
"     ;3335358ww333=     ",
"     <33496347w333,     ",
"     ,334w96347333:     ",
"     -334ww8535333=     ",
"     %333qww853333#     ",
"     o,3333333333>.     ",
"      +2333333332O      ",
"       +:333333>O       ",
"        X$*<<*#.        ",
"                        "
};
