/* XPM */
static char *title_1_inactive[] = {
/* columns rows colors chars-per-pixel */
"2 28 2 1 ",
"  c gray10",
". c #222222",
/* pixels */
"..",
"  ",
"  ",
"  ",
"  ",
"  ",
"  ",
"  ",
"  ",
"  ",
"  ",
"  ",
"  ",
"  ",
"  ",
"  ",
"  ",
"  ",
"  ",
"  ",
"  ",
"  ",
"  ",
"  ",
"  ",
"  ",
"  ",
"  "
};
