/* XPM */
static char *top_right_inactive[] = {
/* columns rows colors chars-per-pixel */
"8 28 6 1 ",
"  c None",
". c gray10",
"X c #1D1D1D",
"o c #202020",
"O c gray13",
"+ c #222222",
/* pixels */
"+++++Oo ",
"......Xo",
".......X",
"........",
"........",
"........",
"........",
"........",
"........",
"........",
"........",
"........",
"........",
"........",
"........",
"........",
"........",
"........",
"........",
"........",
"........",
"........",
"........",
"........",
"........",
"........",
"........",
"........"
};
