/* XPM */
static char *top_left_inactive[] = {
/* columns rows colors chars-per-pixel */
"8 28 7 1 ",
"  c None",
". c gray10",
"X c #1D1D1D",
"o c gray12",
"O c #202020",
"+ c gray13",
"@ c #222222",
/* pixels */
" O+@@@@@",
"oX......",
"X.......",
"........",
"........",
"........",
"........",
"........",
"........",
"........",
"........",
"........",
"........",
"........",
"........",
"........",
"........",
"........",
"........",
"........",
"........",
"........",
"........",
"........",
"........",
"........",
"........",
"........"
};
